<mxfile host="app.diagrams.net" agent="Mozilla/5.0 (Windows NT 10.0; Win64; x64) AppleWebKit/537.36 (KHTML, like Gecko) Chrome/128.0.0.0 Safari/537.36" version="24.7.14">
  <diagram id="C5RBs43oDa-KdzZeNtuy" name="Page-1">
    <mxGraphModel dx="1674" dy="738" grid="1" gridSize="10" guides="1" tooltips="1" connect="1" arrows="1" fold="1" page="1" pageScale="1" pageWidth="827" pageHeight="1169" math="0" shadow="0">
      <root>
        <mxCell id="WIyWlLk6GJQsqaUBKTNV-0" />
        <mxCell id="WIyWlLk6GJQsqaUBKTNV-1" parent="WIyWlLk6GJQsqaUBKTNV-0" />
        <mxCell id="icbIn079vcskYv47-h1v-2" value="" style="edgeStyle=orthogonalEdgeStyle;rounded=0;orthogonalLoop=1;jettySize=auto;html=1;" edge="1" parent="WIyWlLk6GJQsqaUBKTNV-1" source="icbIn079vcskYv47-h1v-0" target="icbIn079vcskYv47-h1v-1">
          <mxGeometry relative="1" as="geometry" />
        </mxCell>
        <mxCell id="icbIn079vcskYv47-h1v-0" value="Start" style="ellipse;whiteSpace=wrap;html=1;" vertex="1" parent="WIyWlLk6GJQsqaUBKTNV-1">
          <mxGeometry x="354" y="80" width="120" height="80" as="geometry" />
        </mxCell>
        <mxCell id="icbIn079vcskYv47-h1v-1" value="Input unsigned int N" style="shape=parallelogram;perimeter=parallelogramPerimeter;whiteSpace=wrap;html=1;fixedSize=1;" vertex="1" parent="WIyWlLk6GJQsqaUBKTNV-1">
          <mxGeometry x="339" y="250" width="150" height="60" as="geometry" />
        </mxCell>
        <mxCell id="icbIn079vcskYv47-h1v-9" value="Yes" style="edgeStyle=orthogonalEdgeStyle;rounded=0;orthogonalLoop=1;jettySize=auto;html=1;" edge="1" parent="WIyWlLk6GJQsqaUBKTNV-1" source="icbIn079vcskYv47-h1v-5" target="icbIn079vcskYv47-h1v-8">
          <mxGeometry relative="1" as="geometry" />
        </mxCell>
        <mxCell id="icbIn079vcskYv47-h1v-11" value="No" style="edgeStyle=orthogonalEdgeStyle;rounded=0;orthogonalLoop=1;jettySize=auto;html=1;" edge="1" parent="WIyWlLk6GJQsqaUBKTNV-1" source="icbIn079vcskYv47-h1v-5" target="icbIn079vcskYv47-h1v-10">
          <mxGeometry relative="1" as="geometry" />
        </mxCell>
        <mxCell id="icbIn079vcskYv47-h1v-5" value="N == 1" style="html=1;whiteSpace=wrap;aspect=fixed;shape=isoRectangle;" vertex="1" parent="WIyWlLk6GJQsqaUBKTNV-1">
          <mxGeometry x="340" y="430" width="150" height="90" as="geometry" />
        </mxCell>
        <mxCell id="icbIn079vcskYv47-h1v-6" style="edgeStyle=orthogonalEdgeStyle;rounded=0;orthogonalLoop=1;jettySize=auto;html=1;entryX=0.487;entryY=0.011;entryDx=0;entryDy=0;entryPerimeter=0;" edge="1" parent="WIyWlLk6GJQsqaUBKTNV-1" source="icbIn079vcskYv47-h1v-1" target="icbIn079vcskYv47-h1v-5">
          <mxGeometry relative="1" as="geometry" />
        </mxCell>
        <mxCell id="icbIn079vcskYv47-h1v-14" style="edgeStyle=orthogonalEdgeStyle;rounded=0;orthogonalLoop=1;jettySize=auto;html=1;entryX=0.5;entryY=0;entryDx=0;entryDy=0;" edge="1" parent="WIyWlLk6GJQsqaUBKTNV-1" source="icbIn079vcskYv47-h1v-8" target="icbIn079vcskYv47-h1v-13">
          <mxGeometry relative="1" as="geometry" />
        </mxCell>
        <mxCell id="icbIn079vcskYv47-h1v-8" value="Print result: N is not a prime number" style="shape=parallelogram;perimeter=parallelogramPerimeter;whiteSpace=wrap;html=1;fixedSize=1;" vertex="1" parent="WIyWlLk6GJQsqaUBKTNV-1">
          <mxGeometry x="180" y="630" width="150" height="60" as="geometry" />
        </mxCell>
        <mxCell id="icbIn079vcskYv47-h1v-16" value="" style="edgeStyle=orthogonalEdgeStyle;rounded=0;orthogonalLoop=1;jettySize=auto;html=1;" edge="1" parent="WIyWlLk6GJQsqaUBKTNV-1" source="icbIn079vcskYv47-h1v-10" target="icbIn079vcskYv47-h1v-15">
          <mxGeometry relative="1" as="geometry" />
        </mxCell>
        <mxCell id="icbIn079vcskYv47-h1v-21" value="Yes" style="edgeLabel;html=1;align=center;verticalAlign=middle;resizable=0;points=[];" vertex="1" connectable="0" parent="icbIn079vcskYv47-h1v-16">
          <mxGeometry x="-0.2194" relative="1" as="geometry">
            <mxPoint as="offset" />
          </mxGeometry>
        </mxCell>
        <mxCell id="icbIn079vcskYv47-h1v-20" value="" style="edgeStyle=orthogonalEdgeStyle;rounded=0;orthogonalLoop=1;jettySize=auto;html=1;" edge="1" parent="WIyWlLk6GJQsqaUBKTNV-1" source="icbIn079vcskYv47-h1v-10" target="icbIn079vcskYv47-h1v-19">
          <mxGeometry relative="1" as="geometry" />
        </mxCell>
        <mxCell id="icbIn079vcskYv47-h1v-22" value="No" style="edgeLabel;html=1;align=center;verticalAlign=middle;resizable=0;points=[];" vertex="1" connectable="0" parent="icbIn079vcskYv47-h1v-20">
          <mxGeometry x="-0.4875" y="1" relative="1" as="geometry">
            <mxPoint as="offset" />
          </mxGeometry>
        </mxCell>
        <mxCell id="icbIn079vcskYv47-h1v-10" value="N &amp;lt; 4" style="html=1;whiteSpace=wrap;aspect=fixed;shape=isoRectangle;" vertex="1" parent="WIyWlLk6GJQsqaUBKTNV-1">
          <mxGeometry x="710" y="615" width="150" height="90" as="geometry" />
        </mxCell>
        <mxCell id="icbIn079vcskYv47-h1v-13" value="Finish" style="ellipse;whiteSpace=wrap;html=1;" vertex="1" parent="WIyWlLk6GJQsqaUBKTNV-1">
          <mxGeometry x="195" y="820" width="120" height="80" as="geometry" />
        </mxCell>
        <mxCell id="icbIn079vcskYv47-h1v-18" style="edgeStyle=orthogonalEdgeStyle;rounded=0;orthogonalLoop=1;jettySize=auto;html=1;entryX=0.5;entryY=0;entryDx=0;entryDy=0;" edge="1" parent="WIyWlLk6GJQsqaUBKTNV-1" source="icbIn079vcskYv47-h1v-15" target="icbIn079vcskYv47-h1v-17">
          <mxGeometry relative="1" as="geometry" />
        </mxCell>
        <mxCell id="icbIn079vcskYv47-h1v-15" value="Print result: N is a prime number" style="shape=parallelogram;perimeter=parallelogramPerimeter;whiteSpace=wrap;html=1;fixedSize=1;" vertex="1" parent="WIyWlLk6GJQsqaUBKTNV-1">
          <mxGeometry x="490" y="830" width="160" height="60" as="geometry" />
        </mxCell>
        <mxCell id="icbIn079vcskYv47-h1v-17" value="Finish" style="ellipse;whiteSpace=wrap;html=1;" vertex="1" parent="WIyWlLk6GJQsqaUBKTNV-1">
          <mxGeometry x="510" y="1010" width="120" height="80" as="geometry" />
        </mxCell>
        <mxCell id="icbIn079vcskYv47-h1v-19" value="i = 2" style="whiteSpace=wrap;html=1;" vertex="1" parent="WIyWlLk6GJQsqaUBKTNV-1">
          <mxGeometry x="1121" y="840" width="120" height="60" as="geometry" />
        </mxCell>
        <mxCell id="icbIn079vcskYv47-h1v-26" value="" style="edgeStyle=orthogonalEdgeStyle;rounded=0;orthogonalLoop=1;jettySize=auto;html=1;" edge="1" parent="WIyWlLk6GJQsqaUBKTNV-1" source="icbIn079vcskYv47-h1v-23" target="icbIn079vcskYv47-h1v-25">
          <mxGeometry relative="1" as="geometry" />
        </mxCell>
        <mxCell id="icbIn079vcskYv47-h1v-27" value="Yes" style="edgeLabel;html=1;align=center;verticalAlign=middle;resizable=0;points=[];" vertex="1" connectable="0" parent="icbIn079vcskYv47-h1v-26">
          <mxGeometry x="-0.2071" y="-1" relative="1" as="geometry">
            <mxPoint as="offset" />
          </mxGeometry>
        </mxCell>
        <mxCell id="icbIn079vcskYv47-h1v-31" value="" style="edgeStyle=orthogonalEdgeStyle;rounded=0;orthogonalLoop=1;jettySize=auto;html=1;" edge="1" parent="WIyWlLk6GJQsqaUBKTNV-1" source="icbIn079vcskYv47-h1v-23" target="icbIn079vcskYv47-h1v-30">
          <mxGeometry relative="1" as="geometry" />
        </mxCell>
        <mxCell id="icbIn079vcskYv47-h1v-32" value="No" style="edgeLabel;html=1;align=center;verticalAlign=middle;resizable=0;points=[];" vertex="1" connectable="0" parent="icbIn079vcskYv47-h1v-31">
          <mxGeometry x="-0.3401" y="1" relative="1" as="geometry">
            <mxPoint as="offset" />
          </mxGeometry>
        </mxCell>
        <mxCell id="icbIn079vcskYv47-h1v-23" value="i &amp;gt; sqrt(N)" style="html=1;whiteSpace=wrap;aspect=fixed;shape=isoRectangle;" vertex="1" parent="WIyWlLk6GJQsqaUBKTNV-1">
          <mxGeometry x="1106" y="1008" width="150" height="90" as="geometry" />
        </mxCell>
        <mxCell id="icbIn079vcskYv47-h1v-24" style="edgeStyle=orthogonalEdgeStyle;rounded=0;orthogonalLoop=1;jettySize=auto;html=1;entryX=0.5;entryY=0.067;entryDx=0;entryDy=0;entryPerimeter=0;" edge="1" parent="WIyWlLk6GJQsqaUBKTNV-1" source="icbIn079vcskYv47-h1v-19" target="icbIn079vcskYv47-h1v-23">
          <mxGeometry relative="1" as="geometry" />
        </mxCell>
        <mxCell id="icbIn079vcskYv47-h1v-29" style="edgeStyle=orthogonalEdgeStyle;rounded=0;orthogonalLoop=1;jettySize=auto;html=1;entryX=0.5;entryY=0;entryDx=0;entryDy=0;" edge="1" parent="WIyWlLk6GJQsqaUBKTNV-1" source="icbIn079vcskYv47-h1v-25" target="icbIn079vcskYv47-h1v-28">
          <mxGeometry relative="1" as="geometry" />
        </mxCell>
        <mxCell id="icbIn079vcskYv47-h1v-25" value="Print result: N is a prime number" style="shape=parallelogram;perimeter=parallelogramPerimeter;whiteSpace=wrap;html=1;fixedSize=1;" vertex="1" parent="WIyWlLk6GJQsqaUBKTNV-1">
          <mxGeometry x="850" y="1220" width="170" height="60" as="geometry" />
        </mxCell>
        <mxCell id="icbIn079vcskYv47-h1v-28" value="Finish" style="ellipse;whiteSpace=wrap;html=1;" vertex="1" parent="WIyWlLk6GJQsqaUBKTNV-1">
          <mxGeometry x="875" y="1400" width="120" height="80" as="geometry" />
        </mxCell>
        <mxCell id="icbIn079vcskYv47-h1v-34" value="" style="edgeStyle=orthogonalEdgeStyle;rounded=0;orthogonalLoop=1;jettySize=auto;html=1;" edge="1" parent="WIyWlLk6GJQsqaUBKTNV-1" source="icbIn079vcskYv47-h1v-30" target="icbIn079vcskYv47-h1v-33">
          <mxGeometry relative="1" as="geometry" />
        </mxCell>
        <mxCell id="icbIn079vcskYv47-h1v-37" value="Yes" style="edgeLabel;html=1;align=center;verticalAlign=middle;resizable=0;points=[];" vertex="1" connectable="0" parent="icbIn079vcskYv47-h1v-34">
          <mxGeometry x="-0.3166" y="2" relative="1" as="geometry">
            <mxPoint as="offset" />
          </mxGeometry>
        </mxCell>
        <mxCell id="icbIn079vcskYv47-h1v-39" value="" style="edgeStyle=orthogonalEdgeStyle;rounded=0;orthogonalLoop=1;jettySize=auto;html=1;" edge="1" parent="WIyWlLk6GJQsqaUBKTNV-1" source="icbIn079vcskYv47-h1v-30" target="icbIn079vcskYv47-h1v-38">
          <mxGeometry relative="1" as="geometry" />
        </mxCell>
        <mxCell id="icbIn079vcskYv47-h1v-40" value="No" style="edgeLabel;html=1;align=center;verticalAlign=middle;resizable=0;points=[];" vertex="1" connectable="0" parent="icbIn079vcskYv47-h1v-39">
          <mxGeometry x="-0.5365" y="-1" relative="1" as="geometry">
            <mxPoint as="offset" />
          </mxGeometry>
        </mxCell>
        <mxCell id="icbIn079vcskYv47-h1v-30" value="N%i == 0" style="html=1;whiteSpace=wrap;aspect=fixed;shape=isoRectangle;" vertex="1" parent="WIyWlLk6GJQsqaUBKTNV-1">
          <mxGeometry x="1340" y="1205" width="150" height="90" as="geometry" />
        </mxCell>
        <mxCell id="icbIn079vcskYv47-h1v-36" style="edgeStyle=orthogonalEdgeStyle;rounded=0;orthogonalLoop=1;jettySize=auto;html=1;entryX=0.5;entryY=0;entryDx=0;entryDy=0;" edge="1" parent="WIyWlLk6GJQsqaUBKTNV-1" source="icbIn079vcskYv47-h1v-33" target="icbIn079vcskYv47-h1v-35">
          <mxGeometry relative="1" as="geometry" />
        </mxCell>
        <mxCell id="icbIn079vcskYv47-h1v-33" value="Print result: N is not a prime number" style="shape=parallelogram;perimeter=parallelogramPerimeter;whiteSpace=wrap;html=1;fixedSize=1;" vertex="1" parent="WIyWlLk6GJQsqaUBKTNV-1">
          <mxGeometry x="1091" y="1410" width="180" height="60" as="geometry" />
        </mxCell>
        <mxCell id="icbIn079vcskYv47-h1v-35" value="Finish" style="ellipse;whiteSpace=wrap;html=1;" vertex="1" parent="WIyWlLk6GJQsqaUBKTNV-1">
          <mxGeometry x="1121" y="1590" width="120" height="80" as="geometry" />
        </mxCell>
        <mxCell id="icbIn079vcskYv47-h1v-38" value="i = i + 1" style="whiteSpace=wrap;html=1;" vertex="1" parent="WIyWlLk6GJQsqaUBKTNV-1">
          <mxGeometry x="1585" y="1410" width="120" height="60" as="geometry" />
        </mxCell>
        <mxCell id="icbIn079vcskYv47-h1v-41" style="edgeStyle=orthogonalEdgeStyle;rounded=0;orthogonalLoop=1;jettySize=auto;html=1;entryX=0.507;entryY=0.011;entryDx=0;entryDy=0;entryPerimeter=0;exitX=1;exitY=0.5;exitDx=0;exitDy=0;" edge="1" parent="WIyWlLk6GJQsqaUBKTNV-1" source="icbIn079vcskYv47-h1v-38" target="icbIn079vcskYv47-h1v-23">
          <mxGeometry relative="1" as="geometry" />
        </mxCell>
      </root>
    </mxGraphModel>
  </diagram>
</mxfile>
